<svg fill="none" height="150" viewBox="0 0 457 150" width="457" xmlns="http://www.w3.org/2000/svg" xmlns:xlink="http://www.w3.org/1999/xlink"><linearGradient id="a" gradientUnits="userSpaceOnUse" x1="58.544" x2="110.579" y1="30.043" y2="120.088"><stop offset="0" stop-color="#19bbfe"/><stop offset="1" stop-color="#e54958"/></linearGradient><path d="m111 0 51.962 30v60l-51.962 30-51.962-30v-60z" fill="#e54958" fill-opacity=".75"/><path d="m59 30 51.962 30v60l-51.962 30-51.962-30v-60z" fill="#19bbfe" fill-opacity=".75"/><g clip-rule="evenodd" fill-rule="evenodd"><path d="m111 60 51.962-30-51.962-30-51.961 30z" fill="#e64958"/><path d="m58.962 150 51.961-30-51.962-30-51.961 30z" fill="#19bbfe"/><path d="m110.962 119.978-51.923-29.978v-59.978l51.923 29.978z" fill="url(#a)"/></g><path d="m195.264 69.576c-1.792 0-3.392-.304-4.8-.912-1.376-.64-2.544-1.52-3.504-2.64s-1.696-2.48-2.208-4.08c-.48-1.6-.72-3.376-.72-5.328s.256-3.728.768-5.328 1.248-2.96 2.208-4.08c.96-1.152 2.128-2.032 3.504-2.64s2.944-.912 4.704-.912c2.4 0 4.352.528 5.856 1.584s2.608 2.432 3.312 4.128l-3.072 1.632c-.448-1.28-1.2-2.272-2.256-2.976-1.024-.704-2.304-1.056-3.84-1.056-1.12 0-2.128.192-3.024.576-.864.352-1.6.864-2.208 1.536s-1.072 1.472-1.392 2.4c-.288.928-.432 1.936-.432 3.024v4.224c0 1.088.144 2.096.432 3.024.32.928.784 1.728 1.392 2.4s1.36 1.2 2.256 1.584c.896.352 1.92.528 3.072.528 1.664 0 3.04-.384 4.128-1.152s1.952-1.824 2.592-3.168l2.736 1.872c-.736 1.664-1.888 3.04-3.456 4.128-1.536 1.088-3.552 1.632-6.048 1.632zm25.997 0c-1.728 0-3.296-.304-4.704-.912-1.376-.608-2.56-1.472-3.552-2.592-.96-1.152-1.696-2.512-2.208-4.08-.512-1.6-.768-3.392-.768-5.376 0-1.952.256-3.728.768-5.328s1.248-2.96 2.208-4.08c.992-1.152 2.176-2.032 3.552-2.64 1.408-.608 2.976-.912 4.704-.912s3.28.304 4.656.912c1.408.608 2.592 1.488 3.552 2.64.992 1.12 1.744 2.48 2.256 4.08s.768 3.376.768 5.328c0 1.984-.256 3.776-.768 5.376-.512 1.568-1.264 2.928-2.256 4.08-.96 1.12-2.144 1.984-3.552 2.592-1.376.608-2.928.912-4.656.912zm0-3.312c2.144 0 3.872-.64 5.184-1.92s1.968-3.264 1.968-5.952v-3.552c0-2.688-.656-4.672-1.968-5.952s-3.04-1.92-5.184-1.92-3.872.64-5.184 1.92-1.968 3.264-1.968 5.952v3.552c0 2.688.656 4.672 1.968 5.952s3.04 1.92 5.184 1.92zm15.053 2.736v-24.768h3.553v2.88h.191c.385-.96.929-1.776 1.633-2.448s1.744-1.008 3.12-1.008c1.44 0 2.512.368 3.216 1.104.704.704 1.136 1.632 1.296 2.784h.144c.448-1.12 1.088-2.048 1.92-2.784s1.984-1.104 3.456-1.104c2.016 0 3.36.704 4.032 2.112.704 1.408 1.056 3.424 1.056 6.048v17.184h-3.552v-16.56c0-2.112-.224-3.568-.672-4.368-.416-.832-1.2-1.248-2.352-1.248-1.024 0-1.856.336-2.496 1.008-.64.64-.96 1.632-.96 2.976v18.192h-3.552v-16.56c0-2.112-.224-3.568-.672-4.368-.416-.832-1.184-1.248-2.304-1.248-1.024 0-1.872.336-2.545 1.008-.639.64-.959 1.632-.959 2.976v18.192zm28.83-24.768h3.84v4.032h.192c1.6-3.072 4.144-4.608 7.632-4.608 3.04 0 5.408 1.136 7.104 3.408 1.728 2.272 2.592 5.456 2.592 9.552s-.864 7.28-2.592 9.552c-1.696 2.272-4.064 3.408-7.104 3.408-3.488 0-6.032-1.536-7.632-4.608h-.192v13.632h-3.84zm10.176 21.936c2.24 0 3.968-.672 5.184-2.016 1.248-1.376 1.872-3.184 1.872-5.424v-4.224c0-2.24-.624-4.032-1.872-5.376-1.216-1.376-2.944-2.064-5.184-2.064-.864 0-1.68.112-2.448.336s-1.44.56-2.016 1.008c-.576.416-1.04.944-1.392 1.584-.32.608-.48 1.328-.48 2.16v8.928c0 .832.16 1.568.48 2.208.352.608.816 1.136 1.392 1.584.576.416 1.248.736 2.016.96s1.584.336 2.448.336zm26.525 3.408c-1.728 0-3.296-.304-4.704-.912-1.376-.608-2.56-1.472-3.552-2.592-.96-1.152-1.696-2.512-2.208-4.08-.512-1.6-.768-3.392-.768-5.376 0-1.952.256-3.728.768-5.328s1.248-2.96 2.208-4.08c.992-1.152 2.176-2.032 3.552-2.64 1.408-.608 2.976-.912 4.704-.912s3.28.304 4.656.912c1.408.608 2.592 1.488 3.552 2.64.992 1.12 1.744 2.48 2.256 4.08s.768 3.376.768 5.328c0 1.984-.256 3.776-.768 5.376-.512 1.568-1.264 2.928-2.256 4.08-.96 1.12-2.144 1.984-3.552 2.592-1.376.608-2.928.912-4.656.912zm0-3.312c2.144 0 3.872-.64 5.184-1.92s1.968-3.264 1.968-5.952v-3.552c0-2.688-.656-4.672-1.968-5.952s-3.04-1.92-5.184-1.92-3.872.64-5.184 1.92-1.968 3.264-1.968 5.952v3.552c0 2.688.656 4.672 1.968 5.952s3.04 1.92 5.184 1.92zm17.165 2.736v-24.768h3.84v4.032h.192c.256-.608.576-1.184.96-1.728.384-.576.848-1.072 1.392-1.488.576-.416 1.248-.752 2.016-1.008s1.664-.384 2.688-.384c2.592 0 4.672.832 6.24 2.496 1.568 1.632 2.352 3.952 2.352 6.96v15.888h-3.84v-15.216c0-2.272-.496-3.952-1.488-5.04-.992-1.12-2.448-1.68-4.368-1.68-.768 0-1.52.096-2.256.288s-1.392.48-1.968.864-1.04.88-1.392 1.488-.528 1.312-.528 2.112v17.184zm36.989.576c-1.792 0-3.408-.304-4.848-.912-1.408-.608-2.624-1.472-3.648-2.592-.992-1.152-1.76-2.512-2.304-4.08-.544-1.6-.816-3.376-.816-5.328 0-1.984.272-3.776.816-5.376.576-1.6 1.36-2.96 2.352-4.08.992-1.152 2.176-2.032 3.552-2.64 1.408-.608 2.96-.912 4.656-.912 1.664 0 3.168.304 4.512.912 1.376.608 2.544 1.456 3.504 2.544.96 1.056 1.696 2.32 2.208 3.792s.768 3.088.768 4.848v1.824h-18.336v1.152c0 1.088.176 2.096.528 3.024s.848 1.728 1.488 2.4c.672.672 1.472 1.2 2.4 1.584.96.352 2.016.528 3.168.528 1.664 0 3.104-.384 4.32-1.152s2.144-1.824 2.784-3.168l2.832 1.92c-.736 1.664-1.968 3.04-3.696 4.128-1.696 1.056-3.776 1.584-6.24 1.584zm-.24-22.752c-1.056 0-2.032.192-2.928.576s-1.68.912-2.352 1.584c-.64.672-1.152 1.472-1.536 2.4-.352.896-.528 1.888-.528 2.976v.336h14.208v-.528c0-1.088-.176-2.08-.528-2.976-.32-.896-.784-1.664-1.392-2.304-.576-.672-1.296-1.184-2.16-1.536-.832-.352-1.76-.528-2.784-.528zm16.974 22.176v-24.768h3.84v4.032h.192c.256-.608.576-1.184.96-1.728.384-.576.848-1.072 1.392-1.488.576-.416 1.248-.752 2.016-1.008s1.664-.384 2.688-.384c2.592 0 4.672.832 6.24 2.496 1.568 1.632 2.352 3.952 2.352 6.96v15.888h-3.84v-15.216c0-2.272-.496-3.952-1.488-5.04-.992-1.12-2.448-1.68-4.368-1.68-.768 0-1.52.096-2.256.288s-1.392.48-1.968.864-1.04.88-1.392 1.488-.528 1.312-.528 2.112v17.184zm37.757 0c-1.888 0-3.28-.528-4.176-1.584-.864-1.056-1.296-2.416-1.296-4.08v-15.84h-8.256v-3.264h6.144c.832 0 1.408-.16 1.728-.48.352-.352.528-.944.528-1.776v-6.48h3.696v8.736h11.28v3.264h-11.28v18.24h11.28v3.264zm-210.09 45.968h-.192c-1.6 3.072-4.144 4.608-7.632 4.608-3.04 0-5.424-1.136-7.152-3.408-1.696-2.272-2.544-5.456-2.544-9.552s.848-7.28 2.544-9.552c1.728-2.272 4.112-3.408 7.152-3.408 3.488 0 6.032 1.536 7.632 4.608h.192v-14.784h3.84v35.52h-3.84zm-6.336 1.2c.864 0 1.68-.112 2.448-.336s1.44-.544 2.016-.96c.576-.448 1.024-.976 1.344-1.584.352-.64.528-1.376.528-2.208v-8.928c0-.832-.176-1.552-.528-2.16-.32-.64-.768-1.168-1.344-1.584-.576-.448-1.248-.784-2.016-1.008s-1.584-.336-2.448-.336c-2.24 0-3.984.688-5.232 2.064-1.216 1.344-1.824 3.136-1.824 5.376v4.224c0 2.24.608 4.048 1.824 5.424 1.248 1.344 2.992 2.016 5.232 2.016zm16.493-.432h7.248v-18.24h-7.248v-3.264h11.088v6.24h.24c.512-1.952 1.472-3.472 2.88-4.56 1.44-1.12 3.264-1.68 5.472-1.68h3.456v3.84h-4.656c-2.208 0-4 .64-5.376 1.92-1.344 1.28-2.016 2.96-2.016 5.04v10.704h9.6v3.264h-20.688zm39.102-26.976c-1.12 0-1.904-.224-2.352-.672-.448-.48-.672-1.072-.672-1.776v-.768c0-.704.224-1.28.672-1.728.448-.48 1.232-.72 2.352-.72s1.904.24 2.352.72c.448.448.672 1.024.672 1.728v.768c0 .704-.224 1.296-.672 1.776-.448.448-1.232.672-2.352.672zm-10.848 26.976h8.928v-18.24h-8.928v-3.264h12.768v21.504h8.352v3.264h-21.12zm33.725 3.264-8.88-24.768h3.888l3.552 10.368 3.84 11.184h.192l3.84-11.184 3.552-10.368h3.792l-8.88 24.768zm29.741.576c-1.792 0-3.408-.304-4.848-.912-1.408-.608-2.624-1.472-3.648-2.592-.992-1.152-1.76-2.512-2.304-4.08-.544-1.6-.816-3.376-.816-5.328 0-1.984.272-3.776.816-5.376.576-1.6 1.36-2.96 2.352-4.08.992-1.152 2.176-2.032 3.552-2.64 1.408-.608 2.96-.912 4.656-.912 1.664 0 3.168.304 4.512.912 1.376.608 2.544 1.456 3.504 2.544.96 1.056 1.696 2.32 2.208 3.792s.768 3.088.768 4.848v1.824h-18.336v1.152c0 1.088.176 2.096.528 3.024s.848 1.728 1.488 2.4c.672.672 1.472 1.2 2.4 1.584.96.352 2.016.528 3.168.528 1.664 0 3.104-.384 4.32-1.152s2.144-1.824 2.784-3.168l2.832 1.92c-.736 1.664-1.968 3.04-3.696 4.128-1.696 1.056-3.776 1.584-6.24 1.584zm-.24-22.752c-1.056 0-2.032.192-2.928.576s-1.68.912-2.352 1.584c-.64.672-1.152 1.472-1.536 2.4-.352.896-.528 1.888-.528 2.976v.336h14.208v-.528c0-1.088-.176-2.08-.528-2.976-.32-.896-.784-1.664-1.392-2.304-.576-.672-1.296-1.184-2.16-1.536-.832-.352-1.76-.528-2.784-.528zm16.973 22.176v-24.768h3.84v4.032h.192c.256-.608.576-1.184.96-1.728.384-.576.848-1.072 1.392-1.488.576-.416 1.248-.752 2.016-1.008s1.664-.384 2.688-.384c2.592 0 4.672.832 6.24 2.496 1.568 1.632 2.352 3.952 2.352 6.96v15.888h-3.84v-15.216c0-2.272-.496-3.952-1.488-5.04-.992-1.12-2.448-1.68-4.368-1.68-.768 0-1.52.096-2.256.288s-1.392.48-1.968.864-1.04.88-1.392 1.488-.528 1.312-.528 2.112v17.184z" fill="#3e4f70"/><path d="m352.688 119.432c-1.312 0-2.24-.272-2.784-.816-.512-.544-.768-1.232-.768-2.064v-.864c0-.832.256-1.52.768-2.064.544-.544 1.472-.816 2.784-.816s2.224.272 2.736.816c.544.544.816 1.232.816 2.064v.864c0 .832-.272 1.52-.816 2.064-.512.544-1.424.816-2.736.816zm25.517-30.672c-1.12 0-1.904-.224-2.352-.672-.448-.48-.672-1.072-.672-1.776v-.768c0-.704.224-1.28.672-1.728.448-.48 1.232-.72 2.352-.72s1.904.24 2.352.72c.448.448.672 1.024.672 1.728v.768c0 .704-.224 1.296-.672 1.776-.448.448-1.232.672-2.352.672zm-10.848 26.976h8.928v-18.24h-8.928v-3.264h12.768v21.504h8.352v3.264h-21.12zm38.093 3.84c-1.728 0-3.296-.304-4.704-.912-1.376-.608-2.56-1.472-3.552-2.592-.96-1.152-1.696-2.512-2.208-4.08-.512-1.6-.768-3.392-.768-5.376 0-1.952.256-3.728.768-5.328s1.248-2.96 2.208-4.08c.992-1.152 2.176-2.032 3.552-2.64 1.408-.608 2.976-.912 4.704-.912s3.28.304 4.656.912c1.408.608 2.592 1.488 3.552 2.64.992 1.12 1.744 2.48 2.256 4.08s.768 3.376.768 5.328c0 1.984-.256 3.776-.768 5.376-.512 1.568-1.264 2.928-2.256 4.08-.96 1.12-2.144 1.984-3.552 2.592-1.376.608-2.928.912-4.656.912zm0-3.312c2.144 0 3.872-.64 5.184-1.92s1.968-3.264 1.968-5.952v-3.552c0-2.688-.656-4.672-1.968-5.952s-3.04-1.92-5.184-1.92-3.872.64-5.184 1.92-1.968 3.264-1.968 5.952v3.552c0 2.688.656 4.672 1.968 5.952s3.04 1.92 5.184 1.92z" fill="#a7b2c8"/></svg>